<svg xmlns="http://www.w3.org/2000/svg" width="1200" height="630" viewBox="0 0 1200 630">
  <defs><linearGradient id="b" x1="0" y1="0" x2="1" y2="1"><stop stop-color="#0d0d12"/><stop offset=".65" stop-color="#351a4e"/><stop offset="1" stop-color="#7a4cff"/></linearGradient><pattern id="w" width="26" height="21" patternUnits="userSpaceOnUse"><path d="M1 0v21M0 1h26" stroke="#fff" stroke-opacity=".21"/></pattern></defs>
  <rect width="1200" height="630" fill="url(#b)"/><circle cx="930" cy="170" r="190" fill="#b395ff" fill-opacity=".18"/><path d="M0 630h1200V496H0z" fill="#0a0a0e"/>
  <path d="M690 496V157l55-45 55 45v339z" fill="#2f1a48"/><path d="M702 496V165l43-35v366z" fill="url(#w)"/><path d="M835 496V76l69-55 69 55v420z" fill="#2b163e"/><path d="M849 496V88l55-44v452z" fill="url(#w)"/><path d="M0 510h1200" stroke="#d9d0ff" stroke-opacity=".5"/>
  <text x="88" y="218" fill="#d9d0ff" font-family="Arial, sans-serif" font-size="18" letter-spacing="6">JALAN HANG JEBAT · KUALA LUMPUR</text><text x="85" y="312" fill="white" font-family="Georgia, serif" font-size="88">Maba Suitez</text><text x="88" y="357" fill="#eee9ff" font-family="Arial, sans-serif" font-size="22" letter-spacing="2">A NEW VERTICAL ADDRESS, OPPOSITE MERDEKA 118</text>
</svg>
